<svg width="23" height="21" viewBox="0 0 23 21" fill="none" xmlns="http://www.w3.org/2000/svg">
<mask id="mask0_189_46" style="mask-type:alpha" maskUnits="userSpaceOnUse" x="0" y="0" width="23" height="21">
<path d="M7.89321 0.653763C7.93261 0.636078 7.97534 0.626953 8.01858 0.626953H14.9079C14.9511 0.626953 14.9938 0.636078 15.0333 0.653763L19.6737 2.735C19.7278 2.75923 19.7737 2.79869 19.8059 2.84853L22.4509 6.95053C22.5233 7.06286 22.5146 7.20925 22.4293 7.31215L11.6992 20.2622C11.5767 20.4101 11.3498 20.4101 11.2273 20.2622L0.49724 7.31215C0.411964 7.20925 0.403216 7.06286 0.475654 6.95053L3.12059 2.84853C3.15275 2.79869 3.19869 2.75923 3.25276 2.735L7.89321 0.653763Z" fill="#C4C4C4"/>
</mask>
<g mask="url(#mask0_189_46)">
<path d="M22.573 5.45361H0.354492V20.5469H22.573V5.45361Z" fill="#47A9F1"/>
<path d="M22.573 0.626953H0.354492V6.37312H22.573V0.626953Z" fill="#7EC7FF"/>
<path d="M11.4638 4.76416L15.6777 10.3571H7.25L11.4638 4.76416Z" fill="#75C1FF"/>
<path d="M11.4638 23.5353L15.6777 10.3574H7.25L11.4638 23.5353Z" fill="#8DCCFC"/>
<path d="M11.4641 4.76424L3.99414 3.65332L7.2503 10.3572L11.4641 4.76424Z" fill="#BFE2F7"/>
<path d="M0.354492 7.13931L3.99373 3.65332L7.24989 10.3572L0.354492 7.13931Z" fill="#87CBFF"/>
<path d="M0.354492 7.13905L3.99373 3.65305L3.18924 2.77197L0.354492 7.13905Z" fill="#47A9F1"/>
<path d="M11.4634 4.76424L18.9334 3.65332L15.6772 10.3572L11.4634 4.76424Z" fill="#4BAEF7"/>
<path d="M22.5731 7.13931L18.9339 3.65332L15.6777 10.3572L22.5731 7.13931Z" fill="#6EBEFF"/>
<path d="M22.5733 7.13905L18.9341 3.65305L19.7386 2.77197L22.5733 7.13905Z" fill="#389BE3"/>
</g>
</svg>
