<svg width="177" height="18" viewBox="0 0 177 18" fill="none" xmlns="http://www.w3.org/2000/svg">
<path d="M8.2467 18C6.34361 18 4.90749 17.5507 3.93833 16.652C2.98678 15.7357 2.51101 14.3524 2.51101 12.5022V7.74449H0V4.28194H2.51101V1.11013L7.21586 0V4.28194H10.4934V7.74449H7.21586V12.3172C7.21586 13.0925 7.39207 13.6123 7.74449 13.8767C8.09692 14.1233 8.51982 14.2467 9.01322 14.2467C9.31278 14.2467 9.56828 14.2291 9.77974 14.1938C10.0088 14.141 10.2467 14.0705 10.4934 13.9824V17.6035C10.1057 17.7621 9.71806 17.8678 9.3304 17.9207C8.96035 17.9736 8.59912 18 8.2467 18Z" fill="white"/>
<path d="M18.9034 18C17.4056 18 16.1105 17.7181 15.018 17.1542C13.9255 16.5903 13.0796 15.7885 12.4805 14.7489C11.8814 13.6916 11.5818 12.4405 11.5818 10.9956C11.5818 9.53304 11.8814 8.28194 12.4805 7.24229C13.0796 6.20264 13.9255 5.40088 15.018 4.837C16.1105 4.27313 17.4056 3.99119 18.9034 3.99119C20.3836 3.99119 21.6699 4.27313 22.7625 4.837C23.855 5.40088 24.7008 6.21145 25.2999 7.26872C25.899 8.30837 26.1986 9.55066 26.1986 10.9956C26.1986 12.4229 25.899 13.6652 25.2999 14.7225C24.7008 15.7797 23.855 16.5903 22.7625 17.1542C21.6699 17.7181 20.3836 18 18.9034 18ZM18.9034 14.511C19.6788 14.511 20.2955 14.2379 20.7536 13.6916C21.2118 13.1278 21.4409 12.2291 21.4409 10.9956C21.4409 9.76211 21.2118 8.87225 20.7536 8.32599C20.2955 7.76211 19.6788 7.48018 18.9034 7.48018C18.1105 7.48018 17.4849 7.76211 17.0268 8.32599C16.5686 8.87225 16.3396 9.76211 16.3396 10.9956C16.3396 12.2291 16.5686 13.1278 17.0268 13.6916C17.4849 14.2379 18.1105 14.511 18.9034 14.511Z" fill="white"/>
<path d="M28.5031 17.7093V7.92952C28.5031 7.3304 28.4855 6.72247 28.4502 6.10573C28.415 5.48899 28.3621 4.88106 28.2916 4.28194H32.8379L33.1022 6.60793H32.8115C33.252 5.76211 33.8775 5.11894 34.6881 4.67841C35.4987 4.22026 36.415 3.99119 37.437 3.99119C39.0053 3.99119 40.1771 4.45815 40.9524 5.39207C41.7454 6.30837 42.1419 7.74449 42.1419 9.70044V17.7093H37.437V9.91189C37.437 9.04846 37.2872 8.44934 36.9877 8.11454C36.6881 7.76211 36.2564 7.5859 35.6925 7.5859C34.9524 7.5859 34.3533 7.8326 33.8952 8.32599C33.437 8.80176 33.2079 9.43612 33.2079 10.2291V17.7093H28.5031Z" fill="white"/>
<path d="M44.9713 17.7093V7.92952C44.9713 7.3304 44.9537 6.72247 44.9184 6.10573C44.8832 5.48899 44.8303 4.88106 44.7598 4.28194H49.3061L49.5704 6.60793H49.2797C49.7202 5.76211 50.3457 5.11894 51.1563 4.67841C51.9669 4.22026 52.8832 3.99119 53.9052 3.99119C55.4735 3.99119 56.6453 4.45815 57.4206 5.39207C58.2136 6.30837 58.6101 7.74449 58.6101 9.70044V17.7093H53.9052V9.91189C53.9052 9.04846 53.7554 8.44934 53.4559 8.11454C53.1563 7.76211 52.7246 7.5859 52.1607 7.5859C51.4206 7.5859 50.8215 7.8326 50.3634 8.32599C49.9052 8.80176 49.6761 9.43612 49.6761 10.2291V17.7093H44.9713Z" fill="white"/>
<path d="M66.7258 18C65.5628 18 64.5408 17.7269 63.6598 17.1806C62.7787 16.6167 62.0827 15.8062 61.5717 14.7489C61.0783 13.6916 60.8316 12.4405 60.8316 10.9956C60.8316 9.53304 61.0783 8.28194 61.5717 7.24229C62.0827 6.18502 62.7787 5.38326 63.6598 4.837C64.5408 4.27313 65.5628 3.99119 66.7258 3.99119C67.7655 3.99119 68.6994 4.23788 69.5276 4.73128C70.3734 5.22467 70.9285 5.86784 71.1928 6.66079H70.9285L71.2192 4.28194H75.7391C75.6862 4.88106 75.6333 5.48899 75.5805 6.10573C75.5452 6.72247 75.5276 7.3304 75.5276 7.92952V17.7093H70.8756L70.8228 15.4361H71.1399C70.8756 16.2115 70.3206 16.837 69.4747 17.3128C68.6465 17.7709 67.7302 18 66.7258 18ZM68.2324 14.511C69.0254 14.511 69.6686 14.2379 70.162 13.6916C70.6554 13.1278 70.9021 12.2291 70.9021 10.9956C70.9021 9.76211 70.6554 8.87225 70.162 8.32599C69.6686 7.76211 69.0254 7.48018 68.2324 7.48018C67.4395 7.48018 66.7963 7.76211 66.3029 8.32599C65.8095 8.87225 65.5628 9.76211 65.5628 10.9956C65.5628 12.2291 65.8007 13.1278 66.2765 13.6916C66.7699 14.2379 67.4219 14.511 68.2324 14.511Z" fill="white"/>
<path d="M78.4498 17.7093V7.92952C78.4498 7.3304 78.4321 6.72247 78.3969 6.10573C78.3616 5.48899 78.3088 4.88106 78.2383 4.28194H82.7846L83.0489 6.60793H82.7581C83.1458 5.79736 83.7185 5.163 84.4762 4.70485C85.2339 4.22907 86.1238 3.99119 87.1458 3.99119C88.1326 3.99119 88.9696 4.22907 89.6568 4.70485C90.3616 5.163 90.8727 5.89427 91.1898 6.89868H90.7405C91.181 5.98238 91.8154 5.26872 92.6436 4.75771C93.4894 4.2467 94.4321 3.99119 95.4718 3.99119C97.0048 3.99119 98.1502 4.45815 98.9079 5.39207C99.6656 6.30837 100.044 7.74449 100.044 9.70044V17.7093H95.3132V9.85903C95.3132 9.03084 95.1898 8.44934 94.9431 8.11454C94.6964 7.76211 94.3 7.5859 93.7537 7.5859C93.0665 7.5859 92.529 7.8326 92.1414 8.32599C91.7713 8.81938 91.5863 9.4978 91.5863 10.3612V17.7093H86.8815V9.85903C86.8815 9.03084 86.7493 8.44934 86.485 8.11454C86.2383 7.76211 85.8506 7.5859 85.322 7.5859C84.6348 7.5859 84.0973 7.8326 83.7097 8.32599C83.3396 8.81938 83.1546 9.4978 83.1546 10.3612V17.7093H78.4498Z" fill="white"/>
<path d="M109.952 18C107.52 18 105.626 17.3744 104.269 16.1233C102.93 14.8722 102.26 13.1542 102.26 10.9692C102.26 9.61234 102.542 8.40529 103.106 7.34802C103.67 6.29075 104.463 5.47137 105.485 4.88987C106.507 4.29075 107.705 3.99119 109.08 3.99119C110.436 3.99119 111.564 4.29075 112.463 4.88987C113.379 5.47137 114.066 6.28194 114.525 7.32159C114.983 8.34361 115.212 9.53304 115.212 10.8899V11.8943H106.199V9.67401H111.749L111.3 10.0441C111.3 9.03965 111.106 8.29956 110.718 7.82379C110.348 7.3304 109.82 7.0837 109.132 7.0837C108.339 7.0837 107.732 7.38326 107.309 7.98238C106.903 8.56388 106.701 9.44493 106.701 10.6256V11.1013C106.701 12.2819 106.991 13.1454 107.573 13.6916C108.154 14.2379 108.991 14.511 110.084 14.511C110.789 14.511 111.45 14.4317 112.066 14.2731C112.701 14.1145 113.3 13.859 113.864 13.5066L115.08 16.5727C114.41 17.0308 113.635 17.3833 112.754 17.63C111.873 17.8767 110.939 18 109.952 18Z" fill="white"/>
<path d="M117.414 18V13.1895H122.304V18H117.414Z" fill="white"/>
<path d="M131.908 18C130.428 18 129.133 17.7181 128.023 17.1542C126.913 16.5903 126.049 15.7886 125.433 14.7489C124.816 13.6917 124.507 12.4317 124.507 10.9692C124.507 9.50663 124.816 8.25553 125.433 7.21588C126.049 6.17623 126.913 5.38328 128.023 4.83703C129.133 4.27315 130.428 3.99121 131.908 3.99121C132.825 3.99121 133.723 4.11456 134.604 4.36126C135.485 4.60795 136.199 4.96037 136.745 5.41852L135.424 8.61676C135.001 8.26434 134.516 8.00002 133.97 7.82381C133.441 7.62998 132.922 7.53306 132.411 7.53306C131.441 7.53306 130.684 7.82381 130.137 8.40531C129.609 8.98681 129.344 9.84143 129.344 10.9692C129.344 12.0969 129.609 12.9604 130.137 13.5595C130.684 14.141 131.441 14.4317 132.411 14.4317C132.904 14.4317 133.424 14.3436 133.97 14.1674C134.516 13.9736 135.001 13.7093 135.424 13.3745L136.745 16.5727C136.181 17.0132 135.459 17.3657 134.578 17.63C133.714 17.8767 132.825 18 131.908 18Z" fill="white"/>
<path d="M145.148 18C143.65 18 142.355 17.7181 141.263 17.1542C140.17 16.5903 139.324 15.7886 138.725 14.7489C138.126 13.6917 137.827 12.4406 137.827 10.9956C137.827 9.53306 138.126 8.28196 138.725 7.24231C139.324 6.20267 140.17 5.4009 141.263 4.83703C142.355 4.27315 143.65 3.99121 145.148 3.99121C146.628 3.99121 147.915 4.27315 149.007 4.83703C150.1 5.4009 150.945 6.21148 151.545 7.26875C152.144 8.30839 152.443 9.55068 152.443 10.9956C152.443 12.4229 152.144 13.6652 151.545 14.7225C150.945 15.7798 150.1 16.5903 149.007 17.1542C147.915 17.7181 146.628 18 145.148 18ZM145.148 14.511C145.923 14.511 146.54 14.2379 146.998 13.6917C147.457 13.1278 147.686 12.2291 147.686 10.9956C147.686 9.76214 147.457 8.87227 146.998 8.32601C146.54 7.76214 145.923 7.4802 145.148 7.4802C144.355 7.4802 143.73 7.76214 143.271 8.32601C142.813 8.87227 142.584 9.76214 142.584 10.9956C142.584 12.2291 142.813 13.1278 143.271 13.6917C143.73 14.2379 144.355 14.511 145.148 14.511Z" fill="white"/>
<path d="M154.748 17.7093V7.92954C154.748 7.33042 154.73 6.72249 154.695 6.10575C154.66 5.48901 154.607 4.88108 154.536 4.28196H159.083L159.347 6.60795H159.056C159.444 5.79738 160.017 5.16302 160.774 4.70487C161.532 4.2291 162.422 3.99121 163.444 3.99121C164.431 3.99121 165.268 4.2291 165.955 4.70487C166.66 5.16302 167.171 5.8943 167.488 6.8987H167.039C167.479 5.9824 168.113 5.26874 168.942 4.75773C169.787 4.24672 170.73 3.99121 171.77 3.99121C173.303 3.99121 174.448 4.45817 175.206 5.39209C175.964 6.30839 176.343 7.74452 176.343 9.70046V17.7093H171.611V9.85905C171.611 9.03086 171.488 8.44936 171.241 8.11456C170.995 7.76214 170.598 7.58593 170.052 7.58593C169.365 7.58593 168.827 7.83262 168.439 8.32601C168.069 8.81941 167.884 9.49782 167.884 10.3613V17.7093H163.18V9.85905C163.18 9.03086 163.047 8.44936 162.783 8.11456C162.536 7.76214 162.149 7.58593 161.62 7.58593C160.933 7.58593 160.395 7.83262 160.008 8.32601C159.638 8.81941 159.453 9.49782 159.453 10.3613V17.7093H154.748Z" fill="white"/>
</svg>
