<svg width="436" height="68" viewBox="0 0 436 68" fill="none" xmlns="http://www.w3.org/2000/svg">
<path d="M31.5321 68C24.3427 68 18.9173 66.3025 15.2561 62.9075C11.6613 59.4459 9.86398 54.2203 9.86398 47.2305V29.257H0.37793V16.1762H9.86398V4.19383L27.6378 0V16.1762H40.0196V29.257H27.6378V46.5316C27.6378 49.4606 28.3035 51.4244 29.6349 52.4229C30.9663 53.3549 32.5639 53.8209 34.4279 53.8209C35.5595 53.8209 36.5248 53.7543 37.3236 53.6211C38.189 53.4214 39.0877 53.1552 40.0196 52.8223V66.5022C38.5551 67.1013 37.0906 67.5007 35.6261 67.7004C34.2281 67.9002 32.8635 68 31.5321 68Z" fill="white"/>
<path d="M71.7909 68C66.1325 68 61.2397 66.9349 57.1125 64.8047C52.9852 62.6745 49.7899 59.6456 47.5266 55.7181C45.2632 51.7239 44.1316 46.9976 44.1316 41.5389C44.1316 36.0137 45.2632 31.2873 47.5266 27.3598C49.7899 23.4322 52.9852 20.4033 57.1125 18.2731C61.2397 16.1429 66.1325 15.0778 71.7909 15.0778C77.3827 15.0778 82.2422 16.1429 86.3694 18.2731C90.4967 20.4033 93.692 23.4655 95.9553 27.4596C98.2187 31.3872 99.3503 36.0803 99.3503 41.5389C99.3503 46.931 98.2187 51.6241 95.9553 55.6182C93.692 59.6123 90.4967 62.6745 86.3694 64.8047C82.2422 66.9349 77.3827 68 71.7909 68ZM71.7909 54.8194C74.7199 54.8194 77.0498 53.7876 78.7806 51.7239C80.5114 49.5937 81.3768 46.1987 81.3768 41.5389C81.3768 36.8791 80.5114 33.5174 78.7806 31.4537C77.0498 29.3235 74.7199 28.2584 71.7909 28.2584C68.7953 28.2584 66.4321 29.3235 64.7013 31.4537C62.9705 33.5174 62.1051 36.8791 62.1051 41.5389C62.1051 46.1987 62.9705 49.5937 64.7013 51.7239C66.4321 53.7876 68.7953 54.8194 71.7909 54.8194Z" fill="white"/>
<path d="M108.056 66.9016V29.9559C108.056 27.6926 107.99 25.396 107.857 23.0661C107.723 20.7362 107.524 18.4395 107.257 16.1762H124.432L125.431 24.9633H124.332C125.997 21.768 128.36 19.3382 131.422 17.674C134.484 15.9432 137.946 15.0778 141.807 15.0778C147.731 15.0778 152.158 16.8419 155.087 20.37C158.083 23.8316 159.581 29.257 159.581 36.6461V66.9016H141.807V37.4449C141.807 34.1831 141.241 31.9197 140.109 30.6549C138.977 29.3235 137.347 28.6579 135.216 28.6579C132.42 28.6579 130.157 29.5898 128.426 31.4537C126.696 33.2511 125.83 35.6476 125.83 38.6432V66.9016H108.056Z" fill="white"/>
<path d="M170.27 66.9016V29.9559C170.27 27.6926 170.203 25.396 170.07 23.0661C169.937 20.7362 169.737 18.4395 169.471 16.1762H186.645L187.644 24.9633H186.546C188.21 21.768 190.573 19.3382 193.635 17.674C196.697 15.9432 200.159 15.0778 204.02 15.0778C209.944 15.0778 214.371 16.8419 217.3 20.37C220.296 23.8316 221.794 29.257 221.794 36.6461V66.9016H204.02V37.4449C204.02 34.1831 203.454 31.9197 202.322 30.6549C201.191 29.3235 199.56 28.6579 197.43 28.6579C194.634 28.6579 192.37 29.5898 190.64 31.4537C188.909 33.2511 188.043 35.6476 188.043 38.6432V66.9016H170.27Z" fill="white"/>
<path d="M252.453 68C248.06 68 244.199 66.9682 240.87 64.9046C237.542 62.7744 234.912 59.7122 232.982 55.7181C231.118 51.7239 230.186 46.9976 230.186 41.5389C230.186 36.0137 231.118 31.2873 232.982 27.3598C234.912 23.3656 237.542 20.3368 240.87 18.2731C244.199 16.1429 248.06 15.0778 252.453 15.0778C256.381 15.0778 259.909 16.0098 263.038 17.8737C266.233 19.7376 268.33 22.1674 269.329 25.163H268.33L269.428 16.1762H286.503C286.304 18.4395 286.104 20.7362 285.904 23.0661C285.771 25.396 285.704 27.6926 285.704 29.9559V66.9016H268.13L267.931 58.3142H269.129C268.13 61.2433 266.033 63.6065 262.838 65.4038C259.709 67.1346 256.248 68 252.453 68ZM258.145 54.8194C261.141 54.8194 263.57 53.7876 265.434 51.7239C267.298 49.5937 268.23 46.1987 268.23 41.5389C268.23 36.8791 267.298 33.5174 265.434 31.4537C263.57 29.3235 261.141 28.2584 258.145 28.2584C255.149 28.2584 252.72 29.3235 250.856 31.4537C248.992 33.5174 248.06 36.8791 248.06 41.5389C248.06 46.1987 248.958 49.5937 250.756 51.7239C252.62 53.7876 255.083 54.8194 258.145 54.8194Z" fill="white"/>
<path d="M296.744 66.9016V29.9559C296.744 27.6926 296.677 25.396 296.544 23.0661C296.411 20.7362 296.211 18.4395 295.945 16.1762H313.12L314.118 24.9633H313.02C314.484 21.9011 316.648 19.5047 319.51 17.7739C322.373 15.9765 325.734 15.0778 329.595 15.0778C333.323 15.0778 336.485 15.9765 339.081 17.7739C341.744 19.5047 343.675 22.2673 344.873 26.0617H343.175C344.84 22.6001 347.236 19.9041 350.365 17.9736C353.56 16.0431 357.122 15.0778 361.049 15.0778C366.841 15.0778 371.168 16.8419 374.03 20.37C376.892 23.8316 378.324 29.257 378.324 36.6461V66.9016H360.45V37.2452C360.45 34.1165 359.984 31.9197 359.052 30.6549C358.12 29.3235 356.622 28.6579 354.559 28.6579C351.962 28.6579 349.932 29.5898 348.468 31.4537C347.07 33.3177 346.371 35.8806 346.371 39.1424V66.9016H328.597V37.2452C328.597 34.1165 328.098 31.9197 327.099 30.6549C326.167 29.3235 324.703 28.6579 322.705 28.6579C320.109 28.6579 318.079 29.5898 316.614 31.4537C315.216 33.3177 314.518 35.8806 314.518 39.1424V66.9016H296.744Z" fill="white"/>
<path d="M415.751 68C406.565 68 399.409 65.6368 394.283 60.9104C389.224 56.184 386.694 49.6936 386.694 41.4391C386.694 36.3133 387.759 31.7533 389.889 27.7592C392.02 23.7651 395.015 20.6696 398.876 18.4728C402.737 16.2095 407.264 15.0778 412.456 15.0778C417.582 15.0778 421.842 16.2095 425.238 18.4728C428.699 20.6696 431.295 23.7318 433.026 27.6593C434.757 31.5203 435.622 36.0137 435.622 41.1395V44.9339H401.572V36.5463H422.542L420.844 37.9442C420.844 34.1498 420.112 31.3539 418.647 29.5565C417.249 27.6926 415.252 26.7606 412.656 26.7606C409.66 26.7606 407.364 27.8923 405.766 30.1557C404.235 32.3524 403.47 35.6809 403.47 40.141V41.9383C403.47 46.3984 404.568 49.6603 406.765 51.7239C408.961 53.7876 412.123 54.8194 416.251 54.8194C418.913 54.8194 421.41 54.5198 423.74 53.9207C426.136 53.3216 428.4 52.3563 430.53 51.025L435.123 62.6079C432.593 64.3387 429.664 65.6701 426.336 66.6021C423.007 67.534 419.479 68 415.751 68Z" fill="white"/>
</svg>
